<svg width="86" height="86" viewBox="0 0 86 86" fill="none" xmlns="http://www.w3.org/2000/svg">
<circle cx="43" cy="43.001" r="42.5" fill="white" stroke="#D5D5D5"/>
<path d="M38.35 40.0253C38.5482 39.91 38.7125 39.7452 38.8265 39.5474C38.9406 39.3496 39.0004 39.1256 39 38.8978V27.3007C39.0018 27.0932 38.953 26.8882 38.8577 26.7034C38.7624 26.5185 38.6235 26.3592 38.4528 26.239C38.2821 26.1188 38.0846 26.0413 37.8771 26.013C37.6696 25.9847 37.4583 26.0065 37.2612 26.0766C33.97 27.2387 31.1215 29.3806 29.1057 32.2091C27.0898 35.0376 26.0051 38.4145 26 41.8776C26.0018 42.9037 26.0942 43.9278 26.2762 44.9379C26.3153 45.1397 26.4019 45.3295 26.529 45.4918C26.656 45.6542 26.82 45.7845 27.0075 45.8721C27.1805 45.953 27.3688 45.9969 27.56 46.001C27.7886 45.9996 28.0128 45.9385 28.21 45.8238L38.35 40.0253ZM36.4 29.2497V38.1569L28.6162 42.6185C28.6 42.3608 28.6 42.1192 28.6 41.8776C28.605 39.2657 29.3355 36.7057 30.7114 34.4782C32.0872 32.2507 34.0554 30.4417 36.4 29.2497Z" fill="#292930"/>
<path d="M57.824 33.5564C57.8076 33.5382 57.7966 33.5156 57.7922 33.4911L57.7287 33.4095C56.2751 30.851 54.195 28.7285 51.6954 27.2533C49.1959 25.778 46.364 25.0015 43.4818 25.001C43.1448 25.001 42.8216 25.1386 42.5833 25.3835C42.3451 25.6285 42.2112 25.9607 42.2112 26.3072V41.2302L29.6479 48.6918C29.5014 48.7749 29.3727 48.8874 29.2691 49.0225C29.1656 49.1576 29.0894 49.3126 29.045 49.4784C29.0006 49.6442 28.9889 49.8175 29.0106 49.988C29.0323 50.1586 29.087 50.3229 29.1714 50.4714V50.5041L29.219 50.5857C31.0512 53.8098 33.866 56.3232 37.2279 57.7369C40.5898 59.1506 44.3112 59.3857 47.8162 58.406C51.3212 57.4262 54.4144 55.2861 56.6168 52.317C58.8193 49.3478 60.0084 45.7152 60 41.9813C60.0038 39.0257 59.2535 36.1208 57.824 33.5564Z" fill="#292930"/>
</svg>
