<svg width="21" height="28" viewBox="0 0 21 28" fill="none" xmlns="http://www.w3.org/2000/svg">
<path d="M2.19043 26.627H20.0476" stroke="#5956E8" stroke-width="1.5" stroke-linecap="round" stroke-linejoin="round"/>
<path d="M10.5236 14.722C12.496 14.722 14.095 13.123 14.095 11.1505C14.095 9.17808 12.496 7.5791 10.5236 7.5791C8.55113 7.5791 6.95215 9.17808 6.95215 11.1505C6.95215 13.123 8.55113 14.722 10.5236 14.722Z" stroke="#5956E8" stroke-width="1.5" stroke-linecap="round" stroke-linejoin="round"/>
<path d="M20.0476 11.2423C20.0476 19.8962 10.5238 26.627 10.5238 26.627C10.5238 26.627 1 19.8962 1 11.2423C1 8.69218 2.0034 6.24647 3.78946 4.44323C5.57552 2.64 7.99794 1.62695 10.5238 1.62695C13.0497 1.62695 15.4721 2.64 17.2582 4.44323C19.0442 6.24647 20.0476 8.69218 20.0476 11.2423V11.2423Z" stroke="#5956E8" stroke-width="1.5" stroke-linecap="round" stroke-linejoin="round"/>
</svg>
