<svg width="86" height="86" viewBox="0 0 86 86" fill="none" xmlns="http://www.w3.org/2000/svg">
<circle cx="43" cy="43.001" r="42.5" fill="white" stroke="#D5D5D5"/>
<path d="M59.6131 38.4573C59.5754 38.2902 59.5017 38.1331 59.397 37.9964C59.2923 37.8598 59.159 37.7469 59.0062 37.6654L55.3953 35.6931C55.2032 35.3047 54.9908 34.9311 54.7581 34.5725L54.8188 30.5084C54.8202 30.338 54.7859 30.169 54.718 30.0122C54.6501 29.8554 54.5502 29.7141 54.4243 29.597C52.6264 27.9916 50.5002 26.7841 48.1887 26.0558C48.0228 26.0049 47.8477 25.9892 47.6751 26.0098C47.5024 26.0304 47.3362 26.0868 47.1874 26.1754L43.6524 28.2672C43.2124 28.2523 42.7876 28.2523 42.3476 28.2672L38.8126 26.1754C38.6638 26.0868 38.4976 26.0304 38.325 26.0098C38.1523 25.9892 37.9773 26.0049 37.8113 26.0558C35.4967 26.7847 33.3696 27.9978 31.5757 29.6119C31.4487 29.725 31.3479 29.8635 31.2798 30.0181C31.2118 30.1727 31.1782 30.3399 31.1812 30.5084L31.2571 34.5725C31.0143 34.9311 30.8019 35.3047 30.5895 35.6931L26.9938 37.6654C26.839 37.7445 26.7042 37.8566 26.5992 37.9937C26.4942 38.1307 26.4217 38.2891 26.3869 38.4573C25.871 40.7908 25.871 43.2062 26.3869 45.5396C26.4246 45.7067 26.4983 45.8639 26.603 46.0005C26.7077 46.1371 26.841 46.25 26.9938 46.3315L30.6047 48.3038C30.7982 48.6904 31.0161 49.0646 31.2571 49.4244L31.1812 53.4885C31.1798 53.659 31.2141 53.8279 31.282 53.9847C31.3499 54.1416 31.4498 54.2829 31.5757 54.4C33.3761 56.002 35.5015 57.209 37.8113 57.9411C37.9773 57.9921 38.1523 58.0078 38.325 57.9872C38.4976 57.9666 38.6638 57.9101 38.8126 57.8216L42.3476 55.7298H43.6524L47.2026 57.8216C47.3871 57.9411 47.6038 58.0036 47.8246 58.0009C47.948 57.9956 48.0703 57.9756 48.1887 57.9411C50.5033 57.2123 52.6304 55.9992 54.4243 54.385C54.5513 54.272 54.6521 54.1335 54.7202 53.9789C54.7882 53.8242 54.8219 53.657 54.8188 53.4885L54.7581 49.4244C54.9857 49.0658 55.1981 48.6923 55.4105 48.3038L59.0214 46.3315C59.172 46.2492 59.3028 46.1358 59.4049 45.9991C59.507 45.8625 59.578 45.7058 59.6131 45.5396C60.129 43.2062 60.129 40.7908 59.6131 38.4573ZM49.6756 41.9985C49.6756 43.2988 49.2841 44.5698 48.5505 45.651C47.817 46.7321 46.7744 47.5747 45.5546 48.0723C44.3348 48.5699 42.9926 48.7001 41.6977 48.4464C40.4027 48.1928 39.2133 47.5666 38.2797 46.6472C37.3461 45.7278 36.7103 44.5564 36.4527 43.2811C36.1951 42.0058 36.3273 40.6839 36.8326 39.4826C37.3378 38.2813 38.1935 37.2546 39.2912 36.5322C40.389 35.8098 41.6797 35.4242 43 35.4242C44.7705 35.4242 46.4684 36.1168 47.7203 37.3498C48.9723 38.5827 49.6756 40.2549 49.6756 41.9985Z" fill="#292930"/>
</svg>
