<svg width="88" height="89" viewBox="0 0 88 89" fill="none" xmlns="http://www.w3.org/2000/svg">
<circle cx="44" cy="44.9609" r="44" fill="#CA87FF"/>
<path d="M63.9074 49.1915L69.4953 46.4088C69.7112 46.3011 69.9034 46.1513 70.0606 45.9682C70.2178 45.7851 70.3368 45.5724 70.4105 45.3427C70.4843 45.1129 70.5114 44.8707 70.4902 44.6303C70.469 44.3899 70.3999 44.1562 70.2871 43.9429L64.7218 33.2875C64.5046 32.8688 64.1305 32.5529 63.6813 32.4088C63.2321 32.2647 62.7441 32.3041 62.3238 32.5183L56.6681 35.3462M63.9074 49.1915L56.6681 35.3462M63.9074 49.1915L60.2877 53.4446M56.6681 35.3462H47.4605C47.2255 35.3454 46.9926 35.3909 46.7753 35.4802C46.5579 35.5695 46.3602 35.7008 46.1936 35.8665L37.3254 44.7121C37.1444 44.898 37.0048 45.1202 36.9161 45.3641C36.8273 45.6079 36.7914 45.8679 36.8107 46.1267C36.8299 46.3855 36.9039 46.6372 37.0277 46.8652C37.1516 47.0933 37.3225 47.2924 37.529 47.4495L38.7507 48.377C40.0052 49.3134 41.5288 49.8193 43.0943 49.8193C44.6598 49.8193 46.1833 49.3134 47.4379 48.377L50.3336 46.2052L60.2877 53.4446M24.091 48.9652L18.5031 46.16C18.288 46.0545 18.0962 45.9069 17.9393 45.7259C17.7823 45.5448 17.6634 45.3341 17.5895 45.1061C17.5156 44.8782 17.4883 44.6377 17.5093 44.399C17.5302 44.1604 17.5989 43.9283 17.7113 43.7167L23.2766 33.0613C23.4943 32.6428 23.8667 32.3259 24.3147 32.178C24.7626 32.0301 25.2505 32.0629 25.6746 32.2695L31.3303 35.0974L24.091 48.9652ZM24.091 48.9652L36.4658 58.6252C36.6588 58.7822 36.8821 58.8978 37.1218 58.9646L50.2431 62.2449C50.5468 62.3105 50.8618 62.3015 51.1612 62.2188C51.4607 62.1361 51.7356 61.982 51.9625 61.7698L60.2877 53.4446M31.4661 35.0974L43.0717 31.7039C43.484 31.5857 43.925 31.6177 44.3159 31.7944L52.1435 35.3462" stroke="#722AAB" stroke-width="2.2" stroke-linecap="round" stroke-linejoin="round"/>
</svg>
