<svg width="88" height="89" viewBox="0 0 88 89" fill="none" xmlns="http://www.w3.org/2000/svg">
<circle cx="44" cy="44.4883" r="44" fill="#CA87FF"/>
<path d="M63.9069 48.7188L69.4948 45.9362C69.7107 45.8285 69.9029 45.6786 70.0601 45.4955C70.2173 45.3124 70.3363 45.0998 70.4101 44.87C70.4838 44.6402 70.5109 44.398 70.4897 44.1577C70.4685 43.9173 70.3995 43.6836 70.2866 43.4703L64.7213 32.8149C64.5041 32.3961 64.13 32.0802 63.6808 31.9362C63.2316 31.7921 62.7436 31.8314 62.3233 32.0457L56.6676 34.8736M63.9069 48.7188L56.6676 34.8736M63.9069 48.7188L60.2872 52.9719M56.6676 34.8736H47.46C47.225 34.8727 46.9922 34.9183 46.7748 35.0075C46.5574 35.0968 46.3597 35.2281 46.1931 35.3939L37.3249 44.2395C37.1439 44.4253 37.0043 44.6476 36.9156 44.8914C36.8269 45.1353 36.7909 45.3952 36.8102 45.654C36.8294 45.9128 36.9034 46.1645 37.0273 46.3926C37.1511 46.6206 37.322 46.8198 37.5285 46.9768L38.7502 47.9044C40.0048 48.8407 41.5283 49.3466 43.0938 49.3466C44.6593 49.3466 46.1828 48.8407 47.4374 47.9044L50.3331 45.7326L60.2872 52.9719M24.0905 48.4926L18.5026 45.6873C18.2875 45.5819 18.0957 45.4342 17.9388 45.2532C17.7818 45.0722 17.6629 44.8614 17.589 44.6335C17.5151 44.4055 17.4879 44.1651 17.5088 43.9264C17.5297 43.6877 17.5984 43.4557 17.7108 43.244L23.2761 32.5886C23.4938 32.1702 23.8663 31.8533 24.3142 31.7054C24.7621 31.5575 25.25 31.5903 25.6741 31.7968L31.3299 34.6247L24.0905 48.4926ZM24.0905 48.4926L36.4653 58.1526C36.6583 58.3096 36.8816 58.4251 37.1213 58.4919L50.2427 61.7723C50.5463 61.8378 50.8613 61.8289 51.1607 61.7461C51.4602 61.6634 51.7351 61.5093 51.962 61.2972L60.2872 52.9719M31.4656 34.6247L43.0712 31.2313C43.4835 31.113 43.9245 31.1451 44.3154 31.3217L52.143 34.8736" stroke="#722AAB" stroke-width="2.2" stroke-linecap="round" stroke-linejoin="round"/>
</svg>
