<svg width="88" height="88" viewBox="0 0 88 88" fill="none" xmlns="http://www.w3.org/2000/svg">
<circle cx="44" cy="44" r="44" fill="#292930"/>
<path d="M31.5744 62.6378H58.2005M49.3251 39.5619C49.3251 42.5029 46.9409 44.8871 43.9999 44.8871C41.0588 44.8871 38.6747 42.5029 38.6747 39.5619C38.6747 36.6209 41.0588 34.2367 43.9999 34.2367C46.9409 34.2367 49.3251 36.6209 49.3251 39.5619ZM58.2005 39.6984C58.2005 52.6019 43.9999 62.6378 43.9999 62.6378C43.9999 62.6378 29.7993 52.6019 29.7993 39.6984C29.7993 35.896 31.2954 32.2493 33.9586 29.5606C36.6217 26.8718 40.2337 25.3613 43.9999 25.3613C47.7661 25.3613 51.3781 26.8718 54.0412 29.5606C56.7043 32.2493 58.2005 35.896 58.2005 39.6984Z" stroke="#8A8A8A" stroke-width="2.2" stroke-linecap="round" stroke-linejoin="round"/>
</svg>
