<svg width="27" height="27" viewBox="0 0 27 27" fill="none" xmlns="http://www.w3.org/2000/svg">
<path d="M24.5274 0.288086H2.5198C1.31727 0.288086 0.266602 1.15334 0.266602 2.34175V24.3982C0.266602 25.593 1.31727 26.6578 2.5198 26.6578H24.5209C25.7299 26.6578 26.6364 25.586 26.6364 24.3982V2.34175C26.6434 1.15334 25.7299 0.288086 24.5274 0.288086ZM8.44064 22.2686H4.66293V10.5228H8.44064V22.2686ZM6.68246 8.737H6.65538C5.44637 8.737 4.66352 7.83702 4.66352 6.71042C4.66352 5.56321 5.46698 4.68442 6.70306 4.68442C7.93914 4.68442 8.69551 5.55674 8.72258 6.71042C8.72199 7.83702 7.93914 8.737 6.68246 8.737ZM22.2471 22.2686H18.4694V15.8462C18.4694 14.3076 17.9196 13.2564 16.5529 13.2564C15.5087 13.2564 14.8906 13.9627 14.6158 14.6508C14.5127 14.898 14.4851 15.2347 14.4851 15.5784V22.2686H10.7074V10.5228H14.4851V12.1574C15.0348 11.3746 15.8936 10.248 17.892 10.248C20.3718 10.248 22.2477 11.8825 22.2477 15.4066L22.2471 22.2686Z" fill="#292930"/>
</svg>
