<svg width="28" height="27" viewBox="0 0 28 27" fill="none" xmlns="http://www.w3.org/2000/svg">
<path d="M19.4785 2.65306C20.9683 2.65734 22.3958 3.22873 23.4493 4.24244C24.5027 5.25616 25.0965 6.62982 25.101 8.06342V18.883C25.0965 20.3166 24.5027 21.6903 23.4493 22.704C22.3958 23.7177 20.9683 24.2891 19.4785 24.2934H8.23475C6.74494 24.2891 5.31743 23.7177 4.26397 22.704C3.21052 21.6903 2.61672 20.3166 2.61227 18.883V8.06342C2.61672 6.62982 3.21052 5.25616 4.26397 4.24244C5.31743 3.22873 6.74494 2.65734 8.23475 2.65306H19.4785ZM19.4785 0.489258H8.23475C3.90555 0.489258 0.363647 3.89754 0.363647 8.06342V18.883C0.363647 23.0489 3.90555 26.4572 8.23475 26.4572H19.4785C23.8077 26.4572 27.3496 23.0489 27.3496 18.883V8.06342C27.3496 3.89754 23.8077 0.489258 19.4785 0.489258Z" fill="#292930"/>
<path d="M21.1657 8.06435C20.8321 8.06435 20.506 7.96916 20.2287 7.79082C19.9513 7.61249 19.7351 7.35901 19.6075 7.06245C19.4798 6.76588 19.4464 6.43955 19.5115 6.12472C19.5766 5.80989 19.7372 5.5207 19.9731 5.29372C20.2089 5.06674 20.5095 4.91217 20.8366 4.84955C21.1638 4.78692 21.5029 4.81906 21.8111 4.9419C22.1193 5.06474 22.3827 5.27277 22.5681 5.53967C22.7534 5.80657 22.8523 6.12036 22.8523 6.44135C22.8528 6.65462 22.8095 6.86587 22.7249 7.06299C22.6403 7.26011 22.5161 7.43921 22.3594 7.59001C22.2027 7.74081 22.0165 7.86034 21.8117 7.94174C21.6069 8.02314 21.3873 8.06481 21.1657 8.06435ZM13.8572 9.14596C14.7468 9.14596 15.6164 9.3998 16.3561 9.87539C17.0957 10.351 17.6722 11.0269 18.0127 11.8178C18.3531 12.6087 18.4422 13.4789 18.2686 14.3185C18.0951 15.1581 17.6667 15.9293 17.0377 16.5346C16.4086 17.1399 15.6072 17.5521 14.7347 17.7191C13.8622 17.8861 12.9578 17.8004 12.1359 17.4728C11.3141 17.1453 10.6116 16.5905 10.1174 15.8787C9.62314 15.167 9.35935 14.3302 9.35935 13.4741C9.36062 12.3266 9.83491 11.2264 10.6781 10.415C11.5214 9.60358 12.6647 9.14718 13.8572 9.14596ZM13.8572 6.98216C12.5229 6.98216 11.2185 7.36291 10.1091 8.07625C8.99961 8.7896 8.13489 9.80351 7.62427 10.9898C7.11364 12.176 6.98004 13.4813 7.24035 14.7407C7.50067 16 8.14321 17.1567 9.08672 18.0646C10.0302 18.9726 11.2323 19.5909 12.541 19.8414C13.8497 20.0919 15.2062 19.9633 16.439 19.4719C17.6717 18.9806 18.7254 18.1485 19.4667 17.0809C20.208 16.0133 20.6037 14.7581 20.6037 13.4741C20.6037 11.7524 19.8929 10.1011 18.6277 8.88361C17.3625 7.66613 15.6465 6.98216 13.8572 6.98216Z" fill="#292930"/>
</svg>
