<svg width="27" height="27" viewBox="0 0 27 27" fill="none" xmlns="http://www.w3.org/2000/svg">
<path d="M19.1148 2.67942C20.6046 2.6837 22.0322 3.2551 23.0856 4.26881C24.1391 5.28253 24.7329 6.65619 24.7373 8.08979V18.9094C24.7329 20.343 24.1391 21.7166 23.0856 22.7303C22.0322 23.744 20.6046 24.3154 19.1148 24.3197H7.8711C6.38129 24.3154 4.95378 23.744 3.90033 22.7303C2.84687 21.7166 2.25308 20.343 2.24863 18.9094V8.08979C2.25308 6.65619 2.84687 5.28253 3.90033 4.26881C4.95378 3.2551 6.38129 2.6837 7.8711 2.67942H19.1148ZM19.1148 0.515625H7.8711C3.5419 0.515625 0 3.92391 0 8.08979V18.9094C0 23.0752 3.5419 26.4835 7.8711 26.4835H19.1148C23.444 26.4835 26.9859 23.0752 26.9859 18.9094V8.08979C26.9859 3.92391 23.444 0.515625 19.1148 0.515625Z" fill="#292930"/>
<path d="M20.802 8.08974C20.4685 8.08974 20.1424 7.99455 19.865 7.81621C19.5876 7.63788 19.3715 7.3844 19.2438 7.08784C19.1162 6.79127 19.0828 6.46494 19.1478 6.15011C19.2129 5.83528 19.3735 5.54609 19.6094 5.31911C19.8453 5.09213 20.1458 4.93756 20.473 4.87494C20.8002 4.81231 21.1393 4.84445 21.4475 4.96729C21.7557 5.09013 22.0191 5.29816 22.2044 5.56506C22.3897 5.83196 22.4887 6.14575 22.4887 6.46674C22.4891 6.68001 22.4458 6.89126 22.3612 7.08838C22.2767 7.2855 22.1524 7.4646 21.9957 7.6154C21.839 7.7662 21.6529 7.88573 21.448 7.96713C21.2432 8.04853 21.0237 8.0902 20.802 8.08974ZM13.4936 9.17135C14.3831 9.17135 15.2528 9.42519 15.9924 9.90078C16.7321 10.3764 17.3086 11.0523 17.649 11.8432C17.9895 12.6341 18.0785 13.5043 17.905 14.3439C17.7314 15.1835 17.3031 15.9547 16.674 16.56C16.045 17.1653 15.2435 17.5775 14.371 17.7445C13.4985 17.9115 12.5942 17.8258 11.7723 17.4982C10.9504 17.1706 10.248 16.6159 9.75373 15.9041C9.25949 15.1924 8.9957 14.3556 8.9957 13.4995C8.99698 12.352 9.47126 11.2518 10.3145 10.4404C11.1577 9.62897 12.301 9.17257 13.4936 9.17135ZM13.4936 7.00755C12.1592 7.00755 10.8549 7.3883 9.74541 8.10164C8.63596 8.81499 7.77124 9.8289 7.26062 11.0152C6.74999 12.2014 6.61639 13.5067 6.87671 14.766C7.13702 16.0254 7.77956 17.1821 8.72307 18.09C9.66658 18.998 10.8687 19.6163 12.1774 19.8668C13.4861 20.1173 14.8426 19.9887 16.0753 19.4973C17.3081 19.006 18.3617 18.1739 19.1031 17.1063C19.8444 16.0387 20.24 14.7835 20.24 13.4995C20.24 11.7777 19.5292 10.1265 18.264 8.909C16.9988 7.69152 15.2828 7.00755 13.4936 7.00755Z" fill="#292930"/>
</svg>
