<svg width="28" height="28" viewBox="0 0 28 28" fill="none" xmlns="http://www.w3.org/2000/svg">
<rect x="0.48584" y="0.960938" width="26.9717" height="26.9717" rx="13.4859" fill="url(#paint0_linear_6_2534)"/>
<path d="M13.9739 7.814C16.136 7.814 16.3898 7.82364 17.2444 7.86219C18.0347 7.89753 18.462 8.02924 18.7479 8.14169C19.127 8.28947 19.3969 8.46295 19.6796 8.74566C19.9623 9.02837 20.139 9.29823 20.2835 9.67732C20.3928 9.96324 20.5277 10.3905 20.563 11.1808C20.6016 12.0354 20.6112 12.2892 20.6112 14.4513C20.6112 16.6134 20.6016 16.8672 20.563 17.7217C20.5277 18.512 20.396 18.9393 20.2835 19.2252C20.1358 19.6043 19.9623 19.8742 19.6796 20.1569C19.3969 20.4396 19.127 20.6163 18.7479 20.7609C18.462 20.8701 18.0347 21.005 17.2444 21.0404C16.3898 21.0789 16.136 21.0886 13.9739 21.0886C11.8119 21.0886 11.5581 21.0789 10.7035 21.0404C9.91319 21.005 9.48591 20.8733 9.19999 20.7609C8.8209 20.6131 8.55104 20.4396 8.26833 20.1569C7.98562 19.8742 7.80892 19.6043 7.66435 19.2252C7.55512 18.9393 7.42019 18.512 7.38486 17.7217C7.3463 16.8672 7.33667 16.6134 7.33667 14.4513C7.33667 12.2892 7.3463 12.0354 7.38486 11.1808C7.42019 10.3905 7.55191 9.96324 7.66435 9.67732C7.81213 9.29823 7.98562 9.02837 8.26833 8.74566C8.55104 8.46295 8.8209 8.28625 9.19999 8.14169C9.48591 8.03246 9.91319 7.89753 10.7035 7.86219C11.5581 7.82042 11.8151 7.814 13.9739 7.814ZM13.9739 6.35547C11.7765 6.35547 11.5002 6.36511 10.636 6.40366C9.77505 6.44221 9.18714 6.58035 8.67312 6.77953C8.13982 6.98514 7.69005 7.26464 7.24029 7.71441C6.79052 8.16417 6.51423 8.61715 6.30541 9.14724C6.10623 9.66126 5.96809 10.2492 5.92954 11.1134C5.89099 11.9743 5.88135 12.2506 5.88135 14.4481C5.88135 16.6455 5.89099 16.9218 5.92954 17.786C5.96809 18.647 6.10623 19.2349 6.30541 19.7521C6.51102 20.2854 6.79052 20.7352 7.24029 21.1849C7.69005 21.6347 8.14303 21.911 8.67312 22.1198C9.18714 22.319 9.77505 22.4571 10.6392 22.4957C11.5034 22.5342 11.7765 22.5439 13.9772 22.5439C16.1778 22.5439 16.4509 22.5342 17.3151 22.4957C18.1761 22.4571 18.764 22.319 19.2812 22.1198C19.8145 21.9142 20.2643 21.6347 20.714 21.1849C21.1638 20.7352 21.4401 20.2822 21.6489 19.7521C21.8481 19.2381 21.9862 18.6502 22.0248 17.786C22.0633 16.9218 22.073 16.6487 22.073 14.4481C22.073 12.2474 22.0633 11.9743 22.0248 11.1101C21.9862 10.2492 21.8481 9.66126 21.6489 9.14402C21.4433 8.61073 21.1638 8.16096 20.714 7.7112C20.2643 7.26143 19.8113 6.98514 19.2812 6.77632C18.7672 6.57714 18.1793 6.439 17.3151 6.40045C16.4477 6.36511 16.1714 6.35547 13.9739 6.35547Z" fill="white"/>
<path d="M13.974 10.2939C11.6802 10.2939 9.81689 12.1541 9.81689 14.4511C9.81689 16.7481 11.677 18.6082 13.974 18.6082C16.2711 18.6082 18.1312 16.7481 18.1312 14.4511C18.1312 12.1541 16.2711 10.2939 13.974 10.2939ZM13.974 17.1465C12.4834 17.1465 11.2754 15.9385 11.2754 14.4479C11.2754 12.9572 12.4834 11.7493 13.974 11.7493C15.4647 11.7493 16.6726 12.9572 16.6726 14.4479C16.6726 15.9385 15.4647 17.1465 13.974 17.1465Z" fill="white"/>
<path d="M18.2949 11.0972C18.8308 11.0972 19.2651 10.6628 19.2651 10.127C19.2651 9.59112 18.8308 9.15674 18.2949 9.15674C17.7591 9.15674 17.3247 9.59112 17.3247 10.127C17.3247 10.6628 17.7591 11.0972 18.2949 11.0972Z" fill="white"/>
<defs>
<linearGradient id="paint0_linear_6_2534" x1="13.9717" y1="0.960937" x2="13.9717" y2="27.9327" gradientUnits="userSpaceOnUse">
<stop stop-color="#F9D801"/>
<stop offset="0.484375" stop-color="#EE0B1F"/>
<stop offset="1" stop-color="#7A39AD"/>
</linearGradient>
</defs>
</svg>
