<svg width="14" height="15" viewBox="0 0 14 15" fill="none" xmlns="http://www.w3.org/2000/svg">
<path d="M7 0.582031C5.61553 0.582031 4.26215 0.992574 3.11101 1.76174C1.95987 2.53091 1.06266 3.62416 0.532846 4.90325C0.00303299 6.18233 -0.13559 7.5898 0.134506 8.94766C0.404603 10.3055 1.07129 11.5528 2.05026 12.5318C3.02922 13.5107 4.2765 14.1774 5.63437 14.4475C6.99224 14.7176 8.3997 14.579 9.67879 14.0492C10.9579 13.5194 12.0511 12.6222 12.8203 11.471C13.5895 10.3199 14 8.9665 14 7.58203C13.9964 5.72661 13.2578 3.9482 11.9458 2.63621C10.6338 1.32423 8.85542 0.585589 7 0.582031V0.582031ZM9.82019 7.1378L7.39712 9.83011C7.34667 9.8852 7.28531 9.92919 7.21695 9.95928C7.14858 9.98938 7.0747 10.0049 7 10.0049C6.9253 10.0049 6.85142 9.98938 6.78306 9.95928C6.71469 9.92919 6.65333 9.8852 6.60289 9.83011L4.17981 7.1378C4.08703 7.03191 4.0394 6.89389 4.04715 6.75331C4.0549 6.61274 4.11739 6.48078 4.22125 6.38573C4.32511 6.29067 4.46206 6.24008 4.60277 6.24478C4.74349 6.24948 4.87676 6.3091 4.97404 6.41088L7 8.65895L9.02596 6.41088C9.07321 6.35695 9.13075 6.31301 9.19521 6.28162C9.25966 6.25024 9.32974 6.23204 9.40132 6.22809C9.47291 6.22415 9.54456 6.23454 9.61208 6.25865C9.67959 6.28277 9.74161 6.32013 9.7945 6.36853C9.84738 6.41693 9.89007 6.47541 9.92005 6.54053C9.95004 6.60565 9.96672 6.67611 9.96911 6.74776C9.9715 6.81941 9.95956 6.89082 9.93399 6.9578C9.90842 7.02478 9.86973 7.08597 9.82019 7.1378Z" fill="#292930"/>
</svg>
