<svg width="27" height="28" viewBox="0 0 27 28" fill="none" xmlns="http://www.w3.org/2000/svg">
<rect y="0.960938" width="26.9717" height="26.9717" rx="13.4859" fill="#1D9BF0"/>
<path d="M11.0179 21.5607C16.9989 21.5607 20.2692 16.6046 20.2692 12.3093C20.2692 12.1677 20.2692 12.0261 20.2624 11.8913C20.8963 11.4328 21.4492 10.8596 21.8875 10.2055C21.3076 10.4618 20.6805 10.6371 20.0197 10.718C20.694 10.3134 21.2065 9.6796 21.4492 8.91764C20.8221 9.2885 20.1276 9.55822 19.3859 9.70657C18.7925 9.07273 17.9496 8.68164 17.0124 8.68164C15.2187 8.68164 13.7623 10.1381 13.7623 11.9317C13.7623 12.188 13.7892 12.4375 13.8499 12.6735C11.146 12.5386 8.75226 11.244 7.14744 9.27502C6.87098 9.75377 6.70915 10.3134 6.70915 10.9068C6.70915 12.0329 7.2823 13.0308 8.15888 13.6107C7.62619 13.5972 7.12721 13.4489 6.68892 13.2062C6.68892 13.2196 6.68892 13.2331 6.68892 13.2466C6.68892 14.8245 7.80825 16.1326 9.29843 16.436C9.02872 16.5102 8.73877 16.5506 8.44208 16.5506C8.23305 16.5506 8.03076 16.5304 7.82847 16.49C8.23979 17.7846 9.44004 18.7219 10.8628 18.7488C9.75021 19.6187 8.34768 20.1379 6.82378 20.1379C6.5608 20.1379 6.30457 20.1244 6.04834 20.0907C7.4711 21.0212 9.1838 21.5607 11.0179 21.5607Z" fill="white"/>
</svg>
