<svg width="27" height="21" viewBox="0 0 27 21" fill="none" xmlns="http://www.w3.org/2000/svg">
<path d="M26.903 2.56056C25.9265 2.98454 24.8933 3.26387 23.8361 3.38972C24.9472 2.7396 25.7827 1.70677 26.186 0.484931C25.1356 1.09873 23.9883 1.52939 22.7932 1.75849C22.29 1.23147 21.6848 0.81221 21.0144 0.526197C20.344 0.240184 19.6223 0.0933894 18.8934 0.0947357C15.942 0.0947357 13.5536 2.44675 13.5536 5.34612C13.5515 5.74941 13.5978 6.1515 13.6914 6.5438C11.5751 6.44466 9.50274 5.90517 7.60702 4.95986C5.71129 4.01454 4.0339 2.6842 2.68216 1.05397C2.20794 1.85285 1.95715 2.76435 1.95599 3.69321C1.95599 5.51412 2.90669 7.12368 4.34222 8.06665C3.49171 8.04648 2.65862 7.82153 1.91369 7.4109V7.47594C1.91369 10.023 3.7576 12.142 6.19806 12.6244C5.73914 12.7466 5.26622 12.8085 4.79127 12.8086C4.45426 12.8092 4.11801 12.7765 3.78742 12.7111C4.46587 14.7975 6.44048 16.315 8.77954 16.3583C6.87889 17.822 4.54539 18.6132 2.1458 18.6074C1.71987 18.6067 1.29433 18.5814 0.871338 18.5315C3.31244 20.0891 6.15004 20.9131 9.04636 20.9052C18.882 20.9052 24.2554 12.9007 24.2554 5.95851C24.2554 5.7309 24.2494 5.50328 24.2385 5.28109C25.2815 4.53975 26.1838 3.61848 26.903 2.56056Z" fill="#292930"/>
</svg>
