<svg width="28" height="28" viewBox="0 0 28 28" fill="none" xmlns="http://www.w3.org/2000/svg">
<rect x="0.51416" y="0.960938" width="26.9717" height="26.9717" rx="13.4859" fill="#1D9BF0"/>
<path d="M11.532 21.5607C17.513 21.5607 20.7834 16.6046 20.7834 12.3093C20.7834 12.1677 20.7834 12.0261 20.7766 11.8913C21.4104 11.4328 21.9634 10.8596 22.4017 10.2055C21.8218 10.4618 21.1947 10.6371 20.5339 10.718C21.2082 10.3134 21.7206 9.6796 21.9634 8.91764C21.3363 9.2885 20.6417 9.55822 19.9 9.70657C19.3066 9.07273 18.4638 8.68164 17.5265 8.68164C15.7329 8.68164 14.2764 10.1381 14.2764 11.9317C14.2764 12.188 14.3034 12.4375 14.3641 12.6735C11.6602 12.5386 9.26642 11.244 7.6616 9.27502C7.38514 9.75377 7.22331 10.3134 7.22331 10.9068C7.22331 12.0329 7.79646 13.0308 8.67304 13.6107C8.14035 13.5972 7.64137 13.4489 7.20308 13.2062C7.20308 13.2196 7.20308 13.2331 7.20308 13.2466C7.20308 14.8245 8.32241 16.1326 9.81259 16.436C9.54288 16.5102 9.25293 16.5506 8.95624 16.5506C8.74721 16.5506 8.54492 16.5304 8.34264 16.49C8.75395 17.7846 9.9542 18.7219 11.377 18.7488C10.2644 19.6187 8.86184 20.1379 7.33794 20.1379C7.07496 20.1379 6.81873 20.1244 6.5625 20.0907C7.98526 21.0212 9.69796 21.5607 11.532 21.5607Z" fill="white"/>
</svg>
