<svg width="27" height="21" viewBox="0 0 27 21" fill="none" xmlns="http://www.w3.org/2000/svg">
<path d="M26.2665 2.53321C25.29 2.9572 24.2569 3.23653 23.1997 3.36238C24.3107 2.71226 25.1462 1.67942 25.5496 0.457588C24.4991 1.07138 23.3518 1.50205 22.1568 1.73114C21.6535 1.20412 21.0483 0.784867 20.3779 0.498854C19.7075 0.21284 18.9859 0.0660457 18.2569 0.067392C15.3056 0.067392 12.9172 2.4194 12.9172 5.31878C12.9151 5.72207 12.9613 6.12416 13.0549 6.51646C10.9386 6.41732 8.86627 5.87783 6.97054 4.93251C5.07482 3.98719 3.39743 2.65686 2.04569 1.02662C1.57147 1.82551 1.32067 2.737 1.31952 3.66586C1.31952 5.48678 2.27021 7.09633 3.70575 8.03931C2.85523 8.01914 2.02215 7.79419 1.27721 7.38356V7.44859C1.27721 9.9957 3.12112 12.1147 5.56159 12.597C5.10266 12.7193 4.62975 12.7812 4.1548 12.7813C3.81778 12.7819 3.48154 12.7492 3.15095 12.6837C3.8294 14.7702 5.80401 16.2876 8.14306 16.331C6.24241 17.7947 3.90892 18.5858 1.50933 18.58C1.0834 18.5794 0.657859 18.554 0.234863 18.5041C2.67597 20.0618 5.51356 20.8857 8.40989 20.8778C18.2455 20.8778 23.6189 12.8734 23.6189 5.93117C23.6189 5.70355 23.6129 5.47594 23.6021 5.25374C24.645 4.5124 25.5473 3.59114 26.2665 2.53321Z" fill="#292930"/>
</svg>
