<svg width="15" height="14" viewBox="0 0 15 14" fill="none" xmlns="http://www.w3.org/2000/svg">
<path d="M7.90918 0C6.52471 0 5.17133 0.410543 4.02019 1.17971C2.86905 1.94888 1.97184 3.04213 1.44203 4.32122C0.912213 5.6003 0.773589 7.00776 1.04369 8.36563C1.31378 9.7235 1.98047 10.9708 2.95943 11.9497C3.9384 12.9287 5.18568 13.5954 6.54355 13.8655C7.90142 14.1356 9.30888 13.997 10.588 13.4672C11.867 12.9373 12.9603 12.0401 13.7295 10.889C14.4986 9.73785 14.9092 8.38447 14.9092 7C14.9056 5.14458 14.167 3.36617 12.855 2.05418C11.543 0.742198 9.7646 0.00355787 7.90918 0ZM10.7294 6.55577L8.3063 9.24807C8.25585 9.30316 8.19449 9.34716 8.12613 9.37725C8.05776 9.40735 7.98388 9.42289 7.90918 9.42289C7.83448 9.42289 7.7606 9.40735 7.69224 9.37725C7.62387 9.34716 7.56251 9.30316 7.51207 9.24807L5.08899 6.55577C4.9962 6.44988 4.94858 6.31186 4.95633 6.17128C4.96408 6.0307 5.02657 5.89875 5.13043 5.8037C5.23429 5.70864 5.37124 5.65804 5.51195 5.66274C5.65266 5.66745 5.78594 5.72707 5.88322 5.82885L7.90918 8.07692L9.93514 5.82885C9.98239 5.77492 10.0399 5.73098 10.1044 5.69959C10.1688 5.66821 10.2389 5.65001 10.3105 5.64606C10.3821 5.64212 10.4537 5.65251 10.5213 5.67662C10.5888 5.70074 10.6508 5.73809 10.7037 5.7865C10.7566 5.8349 10.7992 5.89338 10.8292 5.9585C10.8592 6.02362 10.8759 6.09408 10.8783 6.16573C10.8807 6.23738 10.8687 6.30879 10.8432 6.37577C10.8176 6.44275 10.7789 6.50394 10.7294 6.55577Z" fill="#292930"/>
</svg>
