<svg width="14" height="14" viewBox="0 0 14 14" fill="none" xmlns="http://www.w3.org/2000/svg">
<path d="M-3.0598e-07 7C-2.45463e-07 8.38447 0.410543 9.73784 1.17971 10.889C1.94888 12.0401 3.04213 12.9373 4.32122 13.4672C5.6003 13.997 7.00776 14.1356 8.36563 13.8655C9.7235 13.5954 10.9708 12.9287 11.9497 11.9497C12.9287 10.9708 13.5954 9.7235 13.8655 8.36563C14.1356 7.00776 13.997 5.6003 13.4672 4.32121C12.9373 3.04213 12.0401 1.94888 10.889 1.17971C9.73784 0.410542 8.38447 -1.32017e-06 7 -1.25965e-06C5.14458 0.00355698 3.36617 0.742198 2.05418 2.05418C0.742198 3.36617 0.00355748 5.14458 -3.0598e-07 7ZM6.55577 4.17981L9.24807 6.60288C9.30316 6.65333 9.34716 6.71469 9.37725 6.78305C9.40735 6.85142 9.42289 6.9253 9.42289 7C9.42289 7.0747 9.40735 7.14858 9.37725 7.21694C9.34716 7.28531 9.30316 7.34667 9.24807 7.39711L6.55577 9.82019C6.44988 9.91297 6.31186 9.96059 6.17128 9.95285C6.0307 9.9451 5.89875 9.88261 5.8037 9.77875C5.70864 9.67489 5.65804 9.53794 5.66274 9.39723C5.66745 9.25651 5.72707 9.12324 5.82884 9.02596L8.07692 7L5.82884 4.97404C5.77492 4.92679 5.73098 4.86925 5.69959 4.80479C5.6682 4.74034 5.65 4.67026 5.64606 4.59867C5.64212 4.52709 5.65251 4.45544 5.67662 4.38792C5.70074 4.32041 5.73809 4.25839 5.7865 4.2055C5.8349 4.15262 5.89338 4.10993 5.9585 4.07995C6.02362 4.04996 6.09408 4.03328 6.16573 4.03089C6.23738 4.02849 6.30879 4.04044 6.37577 4.06601C6.44275 4.09158 6.50394 4.13027 6.55577 4.17981Z" fill="#5956E8"/>
</svg>
