<svg width="15" height="15" viewBox="0 0 15 15" fill="none" xmlns="http://www.w3.org/2000/svg">
<path d="M0.534179 7.5C0.534179 8.88447 0.944722 10.2378 1.71389 11.389C2.48306 12.5401 3.57631 13.4373 4.85539 13.9672C6.13448 14.497 7.54194 14.6356 8.89981 14.3655C10.2577 14.0954 11.505 13.4287 12.4839 12.4497C13.4629 11.4708 14.1296 10.2235 14.3997 8.86563C14.6698 7.50776 14.5311 6.1003 14.0013 4.82121C13.4715 3.54213 12.5743 2.44888 11.4232 1.67971C10.272 0.910542 8.91865 0.499999 7.53418 0.499999C5.67876 0.503557 3.90035 1.2422 2.58836 2.55418C1.27638 3.86617 0.537737 5.64458 0.534179 7.5ZM7.08995 4.67981L9.78225 7.10288C9.83734 7.15333 9.88133 7.21469 9.91143 7.28305C9.94153 7.35142 9.95707 7.4253 9.95707 7.5C9.95707 7.5747 9.94153 7.64858 9.91143 7.71694C9.88133 7.78531 9.83734 7.84667 9.78225 7.89711L7.08995 10.3202C6.98406 10.413 6.84604 10.4606 6.70546 10.4528C6.56488 10.4451 6.43293 10.3826 6.33788 10.2788C6.24282 10.1749 6.19222 10.0379 6.19692 9.89723C6.20163 9.75651 6.26125 9.62324 6.36302 9.52596L8.6111 7.5L6.36302 5.47404C6.3091 5.42679 6.26516 5.36925 6.23377 5.30479C6.20238 5.24034 6.18418 5.17026 6.18024 5.09867C6.1763 5.02709 6.18669 4.95544 6.2108 4.88792C6.23492 4.82041 6.27227 4.75839 6.32068 4.7055C6.36908 4.65262 6.42756 4.60993 6.49268 4.57995C6.5578 4.54996 6.62826 4.53328 6.69991 4.53089C6.77156 4.52849 6.84297 4.54044 6.90995 4.56601C6.97693 4.59158 7.03812 4.63027 7.08995 4.67981Z" fill="white"/>
</svg>
