<svg width="27" height="28" viewBox="0 0 27 28" fill="none" xmlns="http://www.w3.org/2000/svg">
<path d="M8.14619 14.1671C9.26674 16.4811 11.1379 18.3475 13.4548 19.4621C13.6257 19.543 13.8147 19.578 14.0033 19.5637C14.1918 19.5494 14.3734 19.4862 14.5301 19.3804L17.9331 17.1073C18.0834 17.0053 18.2571 16.9431 18.438 16.9264C18.6189 16.9097 18.8011 16.9392 18.9676 17.012L25.3379 19.7479C25.5556 19.8386 25.7375 19.9982 25.8555 20.2024C25.9736 20.4065 26.0213 20.6438 25.9912 20.8777C25.7893 22.4536 25.0201 23.9019 23.8276 24.9517C22.635 26.0014 21.1008 26.5807 19.512 26.5811C14.6023 26.5811 9.89373 24.6307 6.42205 21.159C2.95037 17.6873 1 12.9787 1 8.06903C1.00036 6.48026 1.57961 4.94605 2.62937 3.75349C3.67912 2.56093 5.12745 1.79173 6.70334 1.58982C6.93724 1.55977 7.17453 1.60745 7.37868 1.72551C7.58282 1.84357 7.7425 2.02547 7.83311 2.24319L10.5691 8.62711C10.6402 8.79093 10.67 8.96973 10.6558 9.14775C10.6415 9.32578 10.5837 9.49758 10.4874 9.648L8.21424 13.1054C8.11304 13.2618 8.05364 13.4415 8.04173 13.6274C8.02981 13.8133 8.06578 13.9991 8.14619 14.1671V14.1671Z" stroke="#5956E8" stroke-width="1.5" stroke-linecap="round" stroke-linejoin="round"/>
</svg>
