<svg width="25" height="24" viewBox="0 0 25 24" fill="none" xmlns="http://www.w3.org/2000/svg">
<path d="M7.98591 12.334C8.97199 14.3704 10.6186 16.0128 12.6575 16.9936C12.8079 17.0648 12.9742 17.0956 13.1401 17.083C13.3061 17.0704 13.4658 17.0149 13.6038 16.9217L16.5984 14.9214C16.7307 14.8316 16.8835 14.7769 17.0427 14.7622C17.2019 14.7475 17.3622 14.7734 17.5087 14.8375L23.1146 17.2452C23.3062 17.3249 23.4663 17.4654 23.5701 17.6451C23.674 17.8247 23.716 18.0335 23.6896 18.2394C23.5119 19.6261 22.835 20.9007 21.7855 21.8245C20.7361 22.7482 19.386 23.258 17.9878 23.2583C13.6673 23.2583 9.52374 21.542 6.46867 18.4869C3.41359 15.4318 1.69727 11.2882 1.69727 6.96772C1.69758 5.5696 2.20732 4.2195 3.13111 3.17004C4.05489 2.12059 5.32942 1.44369 6.7162 1.26601C6.92204 1.23957 7.13086 1.28153 7.3105 1.38542C7.49015 1.48932 7.63066 1.64938 7.71041 1.84098L10.1181 7.45883C10.1807 7.60299 10.2069 7.76033 10.1943 7.917C10.1818 8.07366 10.1309 8.22484 10.0462 8.35721L8.0458 11.3997C7.95674 11.5373 7.90447 11.6955 7.89399 11.8591C7.8835 12.0226 7.91515 12.1862 7.98591 12.334V12.334Z" stroke="#292930" stroke-width="1.5" stroke-linecap="round" stroke-linejoin="round"/>
</svg>
